<?xml version="1.0" encoding="utf-8"?>
<!-- Generator: Adobe Illustrator 15.1.0, SVG Export Plug-In . SVG Version: 6.00 Build 0)  -->
<!DOCTYPE svg PUBLIC "-//W3C//DTD SVG 1.0//EN" "http://www.w3.org/TR/2001/REC-SVG-20010904/DTD/svg10.dtd">
<svg version="1.0" id="Layer_1" xmlns="http://www.w3.org/2000/svg" xmlns:xlink="http://www.w3.org/1999/xlink" x="0px" y="0px"
	 width="462.5px" height="189.583px" viewBox="0 0 462.5 189.583" enable-background="new 0 0 462.5 189.583" xml:space="preserve">
<path fill="#010101" d="M174.09,86.048c-0.517-16.774-1.337-34.04-9.24-49.231c-10.276-19.75-31.3-28.184-52.085-32.069
	c-17.791-3.327-30.743-0.812-46.56,7.68c-18.143,9.741-33.791,24.328-43.913,42.279c-5.33,9.453-9.059,19.742-12.192,30.1
	c-3.245,10.728-5.908,21.546-6.347,32.785c-0.956,24.465,9.787,51.611,32.632,62.818c9.54,4.678,20.417,6.457,30.968,6.305
	c14.893,0.01,25.061-2.656,34.158-6.223c9.097-3.568,20.21-10.043,31.606-16.174c9.131-5.25,18.194-9.99,28.709-25.453
	c5.606-8.033,8.208-16.969,12.083-25.811c1.398-3.193,2.896-6.882,5.298-9.476c-1.837-0.521-2.627-0.289-2.37,0.683
	c0.096,0.559-0.152,1.204-0.283,1.741c-0.404,1.664-1.016,3.289-1.572,4.906c-2.521,7.313-5.561,14.812-5.936,22.631
	c-0.312,6.488,0.764,15.853,7.227,19.188c4.841,2.5,12.457-0.771,16.695-3.194c7.125-4.078,11.897-11.47,17.61-17.158
	c1.497-1.489,5.79-6.637,7.304-3.981c1.242,2.172,1.076,5.352,1.113,7.75c0.07,4.539-1.506,10.987,0.385,15.264
	c0.199,0.449,1.23,0.246,1.566,0.178c8.025-1.654,9.203-10.146,11.934-16.689c1.067-2.565,3.013-4.832,4.896-6.819
	c2.496-2.634,4.229,3.106,4.677,4.717c1.129,4.067,1.483,8.955,1.76,13.156c0.508,7.877,9.588,2.12,13.508-0.113
	c3.156-1.801,6.281-3.5,8.685-6.271c1.479-1.705,2.701-3.637,4.002-5.475c2.898-4.09,4.367-1.92,5.459,1.771
	c1.768,5.979,5.354,16.764,13.166,15.188c4.965-1.002,9.918-7.219,10.342-12.168c0.787-9.238-27.264,2.549-22.432,8.227
	c2.897,3.408,8.817,0.615,12.047-0.877c2.754-1.271,5.295-2.959,7.938-4.438c3.885-2.178,6.535-5.862,10.273-8.211
	c-1.1,0.203-2.195,0.405-3.297,0.608c4.858,3.429,1.49,16.838,10.825,14.256c7.912-2.188,10.111-13.073,16.611-17.184
	c-1.102,0.201-2.197,0.404-3.297,0.607c3.666,3.762,4.562,8.137,6.215,12.902c1.062,3.065,4.316,3.801,7.188,3.707
	c6.26-0.197,12.26-2.84,15.561-8.287c1.336-2.201,1.484-4.803-0.625-6.471c-2.279-1.804-6.049-0.318-8.375,0.475
	c-7.723,2.631-13.389,11.066-9.754,18.941c0.105,0.229,0.463,0.262,0.676,0.256c8.365-0.234,13.172,1.457,19.715-4.449
	c4.205-3.799,7.961-10.203,11.017-14.938c3.893-6.032,7.469-12.213,9.731-19.053c2.349-7.072,2.775-14.996,3.681-22.339
	c1.104-9.014,2.104-18.043,3.455-27.023c0.467-3.093,0.967-6.21,1.805-9.229c0.201-0.728,0.447-1.449,0.842-2.096
	c-2.506,4.127-3.281-0.633-2.838,1.135c0.106,0.435,0.084,0.916,0.084,1.356c-0.006,7.035-2.188,14.396-3.652,21.224
	c-1.979,9.226-4.139,18.413-6.207,27.616c-0.771,3.436-1.528,6.866-2.223,10.315c-1.312,6.562-1.031,13.465-2.162,20.112
	c-1.096,6.437-3.422,12.646-4.229,19.107c0.067,0.137,0.186,0.209,0.342,0.223c18.69,2.896,29.406-14.071,37.699-28.014
	c-1.277,0.289-2.562,0.576-3.836,0.863c0.479,4.127-0.479,8.35-0.447,12.492c0.026,3.637,2.131,4.359,5.432,3.762
	c9.674-1.758,14.938-8.805,12.129-18.439c-4.188-14.364-24.748,2.213-29.483,7.354c-4.074,4.422-8.438,10.082-4.42,15.904
	c3.717,5.391,12.782,6.758,18.791,5.836c6.602-1.016,11.396-6.145,14.979-11.381c2.033-2.971,3.707-6.187,5.363-9.375
	c1.146-2.213,2.188-5.047,4.021-6.801c-2.442-0.136-3.225,0.1-2.34,0.694c0.291,0.222,0.438,0.824,0.555,1.144
	c0.888,2.479,1.679,4.979,2.646,7.434c1.408,3.553,3.188,7.152,5.652,10.104c5.426,6.484,12.84,8.545,21.063,8.459
	c0.787-0.01,4.394-1.565,2.517-1.551c-10.726,0.113-18.363-4.213-23.379-13.67c-2.066-3.896-3.318-8.109-4.798-12.238
	c-0.524-1.473-1.836-1.473-3.172-1.13c-3.842,0.981-5.33,5.843-6.959,8.979c-3.278,6.32-7.729,15.666-15.137,17.877
	c-6.521,1.943-19.631-3.703-17.496-11.895c1.693-6.507,8.604-12.316,13.83-16.009c2.779-1.961,6.313-4.209,9.842-3.317
	c3.771,0.953,4.562,6.012,5.017,9.164c0.594,4.112-1.58,8.266-5.275,10.157c-3.646,1.869-5.301,1.519-5.518-2.1
	c-0.25-4.164,0.932-8.332,0.444-12.49c-0.104-0.914-3.506,0.308-3.836,0.863c-1.766,2.965-3.551,5.909-5.457,8.786
	c-1.977,2.982-4.715,5.478-6.647,8.429c-2.234,3.408-5.242,5.729-8.896,7.5c-1.271,0.614-10.319,3.629-8.715-2.084
	c0.285-1.019,0.646-1.988,0.775-3.045c0.903-7.263,3.26-14.271,4.022-21.619c0.547-5.267,0.75-10.31,1.863-15.485
	c3.594-16.7,8.18-33.29,10.697-50.2c0.43-2.875,1.838-8.164-2.806-6.502c-3.553,1.271-3.596,8.01-4.072,11.019
	c-1.409,8.833-2.396,17.729-3.473,26.606c-0.977,8.062-1.606,16.381-3.893,24.206c-2.787,9.565-10.045,17.928-15.355,26.203
	c-3.473,5.411-2.034,7.875-8.868,9.284c-2.479,0.513-5.087,0.566-7.605,0.646c-2.722,0.086-2.793-2.59-2.914-4.754
	c-0.267-4.713,6.131-14.715,11.904-12c4.288,2.017-1.146,8.281-2.908,9.81c-4.604,3.981-10.691,2.42-12.334-3.047
	c-1.289-4.293-2.613-7.953-5.809-11.228c-0.609-0.629-2.73,0.254-3.298,0.607c-5.274,3.336-8.322,10.062-12.521,14.541
	c-4.162,4.438-5.646-10.945-8.32-12.832c-0.776-0.549-2.612,0.184-3.297,0.609c-4.213,2.643-7.349,6.479-11.688,9.02
	c-2.064,1.211-13.988,7.967-12.111,1.432c0.92-3.211,6.721-5.082,9.445-6.065c2.752-0.996,6.27-1.443,5.514,2.547
	c-0.594,3.117-2.885,6.183-5.063,8.354c-3.614,3.603-7.198-5.916-8.161-8.138c-0.691-1.591-1.514-3.108-2.113-4.735
	c-0.571-1.545-0.729-3.604-1.848-4.893c-1.729-1.986-4.637-1.52-6.898-0.711c-2.817,1.012-4.604,4.301-6.211,6.594
	c-2.67,3.812-5.51,5.978-9.396,8.301c-1.898,1.138-3.842,2.238-5.896,3.07c-1.926,0.777-1.743-3.465-1.807-4.436
	c-0.229-3.562-0.799-7.352-1.426-10.883c-1.303-7.324-6.73-9.354-12.293-4.564c-3.037,2.613-4.961,6.334-6.312,10.021
	c-0.988,2.69-2.857,11.082-6.301,11.791c0.521,0.061,1.045,0.119,1.566,0.178c-2.396-5.42,4.281-30.215-8.562-23.607
	c-8.299,4.271-13.533,13.145-20.227,19.332c-4.861,4.496-13.221,8.82-18.079,2.242c-2.808-3.799-3.44-9.338-3.487-13.912
	c-0.1-9.633,4.209-18.695,7.071-27.709c0.238-0.75,1.567-3.92,0.091-4.234c-1.734-0.371-3.851,0.707-4.896,2.039
	c-6.347,8.099-8.085,18.98-12.812,27.943c-7.185,13.623-18.182,23.068-31.452,30.498c-14.423,8.135-24.862,13.963-35.089,17.055
	c-6.915,2.092-28.435,6.389-41.878,3.709c-11.308-2.252-21.977-7.74-29.689-16.379c-9.366-10.492-14.458-25.225-16.148-38.977
	c-1.488-12.107,0.366-24.074,3.437-35.773c2.876-10.959,6.4-21.771,11.216-32.043c9.435-20.123,24.984-35.131,43.842-46.523
	c11.583-6.998,23.402-10.072,36.982-9.024c17.031,1.313,32.226,6.606,45.438,17.789c18.773,15.89,20.52,41.474,21.223,64.296
	C170.247,87.715,174.124,87.113,174.09,86.048L174.09,86.048z"/>
</svg>
